<?xml version="1.0" encoding="utf-8"?>
<!-- Designed by Vexels.com - 2020 All Rights Reserved - https://vexels.com/terms-and-conditions/  -->
<svg version="1.1" id="Capa_1" xmlns="http://www.w3.org/2000/svg" xmlns:xlink="http://www.w3.org/1999/xlink" x="0px" y="0px"
	 viewBox="0 0 1200 1200" enable-background="new 0 0 1200 1200" xml:space="preserve">
<g>
	<path fill="#fff" d="M607.034,450.26c-1.257-0.385-2.584,0.333-2.963,1.59c-0.336,1.107-8.162,27.499-4.541,56.281
		c0.15,1.203,1.174,2.083,2.357,2.083c0.098,0,0.199-0.008,0.299-0.021c1.304-0.163,2.228-1.353,2.063-2.656
		c-3.487-27.747,4.298-54.051,4.375-54.314C609.004,451.967,608.291,450.64,607.034,450.26z"/>
	<path fill="#fff" d="M1013.94,53.447l-20.519-1.12l-41.34-2.256c-20.95-1.182-41.472,12.427-57.587,38.219
		c-15.444,24.719-25.155,57.921-27.498,93.741c-38.623-2.291-80.53-3.85-131.522-4.887c-7.712-10.235-26.604-12.399-32.983-12.833
		c-0.107-0.404-0.249-0.789-0.436-1.151c-0.891-1.73-2.669-2.788-4.881-2.909l-0.323-0.018l-0.315,0.07
		c-8.749,1.917-15.098,9.079-18.353,16.001c-69.155-0.637-145.546-0.101-227.11,1.615l-8.103-10.606
		c-1.154-1.283-2.855-1.89-4.494-1.647l-0.423,0.065c-2.776,0.49-5.049,2.28-6.335,4.724c-5.377,0.46-24.171,2.322-32.483,6.476
		c-1.372,0.686-2.355,1.481-3.066,2.3c-29.05,0.777-55.211,1.609-77.335,2.38c-2.767-59.436-33.041-105.509-71.049-107.583
		l-32.13-1.753l-15.375-0.839c-0.906-0.049-1.81-0.075-2.713-0.075c-41.712,0-78.07,52.497-81.695,118.936
		c-1.784,32.685,4.499,63.883,17.693,87.846c13.395,24.324,32.319,38.349,53.287,39.492l15.372,0.839l32.13,1.753
		c0.044,0.003,0.088,0.005,0.132,0.005c0.003,0,0.005-0.001,0.007-0.001c0.859,0.044,1.717,0.071,2.574,0.071
		c41.715,0,78.073-52.497,81.697-118.933c0.001-0.023,0.002-0.046,0.003-0.069c21.472-0.746,46.808-1.552,74.973-2.312
		c-0.998,2.656-0.68,5.191-0.177,6.894c-0.837,0.754-1.494,1.703-1.835,2.805c-5.811,18.712-1.542,39.11-0.806,42.313
		c-0.585,6.136-5.938,69.727,19.472,99.827l0.057,0.981c0.782,14.376,3.175,57.937,36.822,92.612
		c0.2,4.186,0.827,9.029,2.221,14.486c-2.09,10.886-3.73,44.636,4.223,66.07c-4.134,17.159-5.199,34.954,0.808,51.627
		c9.308,25.829,18.883,48.602,26.572,66.898c2.753,6.545,5.294,12.597,7.575,18.183c-3.431,3.605-11.391,14.706-1.451,32.483
		c-1.431,9.48-12.782,91.784,15.369,142.488c-5.363,13.801-5.198,30.635,0.583,50.303c8.087,27.52,22.575,127.919,20.704,181.299
		c-0.354,0.099-0.727,0.193-1.068,0.294c-2.357,0.7-4.324,2.259-5.54,4.383c-3.188,5.568-11.784,19.67-22.726,30.346
		c-3.547,3.462-7.659,6.474-11.637,9.388c-9.622,7.045-19.504,14.324-18.763,27.181c-0.001,0.004-0.003,0.007-0.003,0.011
		c-0.001,0.022,0.01,0.041,0.009,0.063c0.089,1.48,0.284,3.015,0.672,4.651c0.725,3.051,3.441,5.24,6.608,5.323
		c2.638,0.07,6.162,0.103,10.325,0.103c25.135,0,73.519-1.247,89.999-3.844c2.894-0.457,5.147-2.628,5.736-5.534
		c0.7-3.449,1.346-8.917,1.577-15.196c0.002-0.02,0.014-0.037,0.016-0.057c0.003-0.031-0.012-0.059-0.01-0.09
		c0.072-2.008,0.101-4.081,0.071-6.22c4.212,1.906,11.951,4.435,23.887,4.83c0.55,0.018,1.107,0.028,1.675,0.028
		c22.207,0,58.091-13.663,68.775-17.94c2.883-1.156,4.319-4.342,3.265-7.251c-1.249-3.459-1.879-6.533-1.773-8.88
		c-0.475-10.958-2.752-30.602-12.667-39.053c-0.88-0.752-1.728-1.237-2.558-1.589c-2.308-3.689-15.147-24.633-23.459-47.452
		c-8.14-22.346-15.864-31.111-18.062-33.292c-2.818-13.495-9.117-24.99-13.759-33.417c-1.234-2.241-2.367-4.301-3.312-6.167
		c1.951-26.332-2.125-38.852-3.218-41.664c1-11.108,0.967-25.809,0.936-29.982c2.305-1.924,4.599-3.853,6.877-5.788
		c0.014-0.012,0.028-0.023,0.042-0.036c19.914-16.916,38.54-34.313,51.366-52.869c0.252-0.237,0.445-0.508,0.571-0.818
		c12.033-17.678,18.756-36.412,16.23-56.791c-5.867-47.315-33.456-76.454-37.997-80.966c-2.016-14.578-11.759-23.979-15.024-26.753
		c1.41-12.93,0.066-26.572-0.942-36.628c-0.318-3.162-0.596-5.935-0.764-8.346c6.366-10.822,7.392-21.208,7.544-23.43
		c13.224-31.015,15.173-54.263,16.109-65.456c0.191-2.297,0.348-4.174,0.545-5.488c14.871-18.56,20.726-39.688,23.883-51.085
		c0.689-2.488,1.234-4.453,1.618-5.578c15.437-33.609,22.729-68.589,23.165-88.685c23.226-38.934,28.604-88.008,29.131-93.382
		c9.472-16.758,11.65-34.005,12.093-38.928c0.072-0.813-0.04-1.594-0.234-2.347c4.842-6.329,6.269-11.881,4.155-16.494
		c-0.075-0.162-0.183-0.302-0.265-0.46c49.833,1.033,91.195,2.589,129.504,4.864c0.94,68.929,30.803,124.095,70.441,126.256
		l41.338,2.256l20.522,1.118c0.044,0.003,0.088,0.005,0.132,0.005c0.003,0,0.005-0.001,0.007-0.001
		c0.774,0.041,1.549,0.063,2.324,0.063c20.15,0,39.642-13.5,55.125-38.284c15.844-25.359,25.677-59.637,27.688-96.519
		C1088.234,120.028,1056.783,55.784,1013.94,53.447z M978.926,325.552l-0.41-0.022c-40.22-2.197-69.66-64.196-65.623-138.208
		c3.968-72.665,38.746-130.304,78.076-130.304c0.728,0,1.461,0.021,2.194,0.059l0.243,0.013
		c-13.528,5.571-26.277,17.327-37.053,34.574c-15.844,25.359-25.677,59.637-27.688,96.519
		C925.164,252.376,946.671,307.851,978.926,325.552z M733.006,182.905c0.204-0.31,0.736-1.027,1.255-1.027c0,0,0.003,0,0.005,0
		l0.163,0.001c51.369,1.038,93.491,2.6,132.297,4.903c-0.161,3.434-0.249,6.84-0.268,10.218
		c-39.475-2.341-82.166-3.918-134.024-4.947c-0.17-0.114-0.332-0.236-0.507-0.345C731.114,189.078,731.557,185.098,733.006,182.905z
		 M729.036,180.282c-1.566,2.369-2.346,5.793-2.251,9.007c-5.26-1.863-10.898-2.434-13.584-2.599
		c-2.744-4.668-7.461-6.661-10.931-8.112c-1.378-0.576-3.462-1.448-3.712-1.949c-0.003-0.005-0.021-0.372,0.555-1.283
		c1.497-2.365,2.494-4.443,3.054-6.284c5.472,0.392,21.206,2.137,28.356,9.508C729.981,179.035,729.48,179.608,729.036,180.282z
		 M680.047,244.198c-32.247,60.235-32.45,69.288-32.656,78.858c-0.013,0.625-0.026,1.249-0.052,1.89
		c-17.465,20.635-28.212,62.602-33.168,86.435c-13.947,9.045-28.057,22.471-32.06,26.383c-2.92-0.903-6.478-0.661-10.418,0.888
		c-2.742-18.752-0.363-29.716,1.096-36.402c0.083-0.385,0.163-0.756,0.24-1.115c7.507-2.522,12.411-9.011,14.554-14.479
		c0.311-0.794,0.561-1.58,0.778-2.359c4.55-3.933,8.904-14.82,9.547-19.498c2.695-19.669-2.112-38.517-12.35-52.51
		c6.367-2.64,12.49-7.875,13.091-14.711c0.493-5.609-2.674-14.081-20.568-22.579c-8.198-3.888-14.866-4.246-19.838-1.045
		c-5.977,3.851-7.545,11.731-7.956,15.995c-19.716-3.375-40.444,4.485-51.65,20.644c-9.403,6.026-9.556,14.013-8.1,18.16
		c-1.552,5.385-9.603,35.664-4.556,67.458c-6.384-8.303-9.875-18.008-13.733-28.919c-3.96-11.2-8.441-23.872-17.058-36.694
		c0.527-30.917-21.885-75.941-24.684-81.44c-0.006-3.376-0.046-22.484-0.138-32.149c3.867-1.656,13.83-5.917,20.661-8.798
		c6.301-2.656,8.213-7.289,8.42-10.768c79.753-1.601,154.467-2.076,222.229-1.386c3.273,3.223,7.148,6.202,9.643,8.012
		C683.147,219.093,680.444,240.664,680.047,244.198z M528.637,495.635c-0.034,0.045-0.082,0.069-0.112,0.117
		c-0.023,0.036-0.023,0.077-0.044,0.114c-6.229,8.832-13.733,14.583-25.568,13.65c-4.714-0.39-7.79-1.949-9.406-4.77
		c-1.36-2.371-1.667-5.527-1.307-9.088c0-0.002,0-0.003,0-0.005c0.996-9.849,7.224-22.875,11.406-31.597
		c0.953-1.99,1.82-3.797,2.527-5.356c4.364-9.616,4.905-17.264,4.666-21.762c2.61,0.844,5.353,1.281,8.238,1.281
		c11.071,0,24.128-6.226,38.947-18.601c1.007-0.842,1.143-2.341,0.299-3.351c-0.844-1.012-2.344-1.141-3.351-0.299
		c-17.3,14.443-32.184,20.083-43.067,16.327c-9.566-3.312-16.534-14.084-20.142-31.149c-7.008-33.126,2.308-67.314,3.485-71.4
		c1.812-2.223,14.758-16.466,40.336-5.452c27.701,11.936,35.87,38.641,37.555,45.547c-1.875,0.856-3.243,1.768-3.536,1.975
		c-1.071,0.759-1.322,2.246-0.56,3.317c0.756,1.071,2.243,1.324,3.317,0.56c1.218-0.867,5.39-3.219,8.358-2.638
		c1.107,0.212,1.939,0.8,2.615,1.846c1.453,2.251,1.399,6.089-0.139,10.018c-1.848,4.716-6.169,10.351-12.752,12.034l-1.456,0.372
		l-0.289,1.471c-0.147,0.746-0.325,1.557-0.516,2.439c-1.569,7.194-4.148,19.125-0.912,39.673
		c-7.332,4.459-15.568,13.175-23.417,27.346c-1.76,3.178-3.433,6.428-5.088,9.644C535.389,484.374,532.219,490.508,528.637,495.635z
		 M458.932,523.754c4.345-16.843,11.608-33.092,17.749-46.825c0.883-1.972,1.742-3.893,2.566-5.756
		c8.965-20.271,21.152-26.97,26.652-29.045c-0.379,3.826-1.469,8.81-4.099,14.605c-0.697,1.533-1.549,3.312-2.486,5.266
		c-4.384,9.147-10.265,21.445-11.672,31.89C483.087,495.992,468.107,504.142,458.932,523.754z M561.414,293.095
		c-2.113-0.87-4.271-1.543-6.446-2.122c0.281-3.778,1.611-10.286,5.854-13.02c3.49-2.246,8.606-1.791,15.22,1.345
		c12.032,5.715,18.379,12.06,17.868,17.866c-0.444,5.062-5.905,9.292-11.481,11.207C576.689,301.742,569.6,296.465,561.414,293.095z
		 M559.602,297.493c23.813,9.804,37.628,37.215,33.594,66.661c-0.372,2.713-2.283,7.799-4.448,11.745
		c-0.301-1.305-0.772-2.518-1.458-3.58c-0.234-0.363-0.51-0.672-0.778-0.989c-4.465-25.4-16.417-43.724-36.548-55.981
		c-17.995-10.958-33.154-10.311-42.142-8.203C520.879,294.599,542.038,290.264,559.602,297.493z M501.472,314.409
		c0.196-0.108,19.858-10.927,46.018,5.003c23.067,14.046,30.469,33.808,33.607,48.931c-1.151-0.16-2.31-0.134-3.433,0.051
		c-1.972-8.18-10.65-35.72-40.235-48.469c-22.524-9.708-36.667-1.567-42.787,3.705C494.885,321.033,496.348,317.565,501.472,314.409
		z M676.417,181.049c-0.687,2.536-0.89,4.848-0.541,6.598c0.226,1.13,0.84,2.355,1.686,3.614
		c-69.06-0.645-145.224-0.111-226.515,1.597c-1.713-5.208-0.524-8.687,0.244-10.186
		C532.081,180.971,607.783,180.424,676.417,181.049z M438.856,170.421l-0.343-2.354l0.617,2.31c0.021-0.003,0.041-0.003,0.059-0.003
		c0.083,0,0.157,0.021,0.121-0.026l7.756,10.166c-1.306,2.575-3.029,8.03,0.154,15.697c0.379,0.916,1.265,1.469,2.197,1.469
		c0.06,0,0.119-0.031,0.18-0.036c1.701-0.036,3.386-0.068,5.083-0.103c-0.192,1.787-1.245,4.494-5.498,6.288
		c-6.689,2.822-16.374,6.963-20.419,8.694c-9.26-12.626-24.822-10.153-30.804-8.602c-0.217-1.046-0.268-2.419,0.388-3.737
		c1.342-2.687,5.261-4.595,11.332-5.519c19.27-2.932,25.741-7.855,25.651-19.51c-0.005-0.589,0.085-1.154,0.251-1.677
		c0.001-0.005,0.002-0.009,0.003-0.014C436.092,171.882,437.317,170.693,438.856,170.421z M274.626,198.184l-2.124,0.085
		l-0.152,2.119c-2.006,27.644-17.403,49.332-34.105,48.47c-8.167-0.447-15.643-6.1-21.048-15.922
		c-5.607-10.181-8.273-23.506-7.509-37.52c0.764-14.012,4.863-26.97,11.546-36.482c6.44-9.174,14.432-13.996,22.657-13.537
		c14.296,0.782,25.919,17.432,28.268,40.488l0.227,2.228l2.235-0.09c26.498-1.061,68.617-2.605,119.812-3.986
		c0.09,3.472,2.528,6.878,4.537,9.111c-0.532,0.31-1.04,0.634-1.501,0.981C344.76,195.528,301.6,197.105,274.626,198.184z
		 M401.36,181.186c6.857-3.425,22.675-5.224,29.209-5.845c0.033,6.846-1.564,11.572-21.607,14.621
		c-1.949,0.297-3.723,0.69-5.321,1.179c-1.991-1.956-4.715-5.33-4.439-7.599C399.243,183.207,399.367,182.182,401.36,181.186z
		 M137.732,275.849c-12.77-23.193-18.846-53.483-17.112-85.293c3.345-61.32,34.968-110.277,72.168-114.175
		c-32.68,13.642-58.523,59.324-61.546,114.756c-1.784,32.685,4.499,63.883,17.695,87.846c8.346,15.158,18.841,26.312,30.639,32.846
		C163.297,308.18,148.643,295.666,137.732,275.849z M202.48,313.725c-19.267-1.051-36.805-14.205-49.376-37.037
		c-12.77-23.193-18.846-53.486-17.112-85.293c3.562-65.259,39.138-116.538,79.402-114.369l10.824,0.59
		c-33.282,12.95-59.783,59.116-62.846,115.273c-1.784,32.685,4.499,63.883,17.695,87.846c8.675,15.757,19.68,27.159,32.05,33.57
		L202.48,313.725z M234.61,315.478c-19.27-1.051-36.805-14.205-49.376-37.037c-12.77-23.193-18.846-53.483-17.112-85.293
		c3.56-65.259,39.151-116.538,79.402-114.369c35.541,1.94,63.892,46.045,66.554,103c-14.458,0.511-27.067,0.991-37.441,1.403
		c-3.131-24.285-16.291-41.65-32.489-42.533c-9.822-0.581-19.386,4.985-26.81,15.553c-7.186,10.232-11.59,24.066-12.401,38.958
		c-0.813,14.889,2.06,29.123,8.09,40.073c6.229,11.311,15.093,17.84,24.959,18.377c0.439,0.026,0.875,0.036,1.311,0.036
		c18.692-0.003,34.835-21.802,37.618-50.791c10.276-0.408,22.749-0.881,37.071-1.386
		C310.316,266.554,274.859,317.609,234.61,315.478z M396.269,210.097c0.147-0.47,0.519-0.86,0.973-1.014
		c1.944-0.669,19.257-6.146,28.108,6.781c0.163,0.237,0.253,0.552,0.256,0.888c0.078,7.959,0.119,22.802,0.135,29.516
		c-14.192-4.954-25.549-1.362-30.71,0.992C393.858,240.742,391.756,224.636,396.269,210.097z M454.259,459.321l0.116-0.547
		l-0.145-0.542c-4.714-17.948-0.635-29.172-0.586-29.298c0.465-1.224-0.15-2.594-1.373-3.064c-1.213-0.47-2.602,0.139-3.072,1.368
		c-0.105,0.273-1.447,3.922-1.879,10.249c-29.203-32.765-31.391-72.5-32.123-85.939l-0.15-2.61l-0.534-0.612
		c-23.534-26.978-19.678-86.824-18.926-96.047c3.418-1.828,15.367-7.055,30.811-0.694c3.18,6.337,24.882,50.736,24.019,79.65
		l-0.023,0.772l0.436,0.64c8.549,12.527,12.811,24.577,16.934,36.234c4.782,13.525,9.317,26.307,20.056,36.532
		c3.565,14.376,9.701,24.336,17.953,29.246c0.09,0.55,0.194,1.352,0.252,2.383c-5.478,1.606-20.452,8.059-31.131,32.205
		l-2.558,5.741c-5.48,12.255-11.829,26.462-16.299,41.399C450.791,495.716,452.417,468.15,454.259,459.321z M458.999,574.991
		c-1.085-3.01-1.921-6.069-2.537-9.163c-2.375-44.859,21.866-61.817,30.902-66.549c0.119,2.904,0.717,5.569,2.015,7.833
		c2.419,4.221,6.843,6.624,13.142,7.143c13.104,1.099,21.725-5.039,28.499-13.918c9.668,7.567,55.658,49.851,45.665,161.794
		c-23.181,11.042-53.529,16.848-83.283-1.458c-2.365-5.808-5.034-12.153-7.917-19.017
		C477.812,623.41,468.266,600.702,458.999,574.991z M497.683,812.81c3.81,0.909,9.856,2.03,16.536,2.03
		c0.972,0,1.969-0.062,2.962-0.113c-2.651,3.291-4.825,5.969-6.295,7.746c-2.255,2.726-4.176,5.64-5.807,8.716
		C502.148,825.418,499.705,819.242,497.683,812.81z M514.552,825.509c3.505-4.237,10.93-13.497,19.521-24.276
		c6.548-0.585,48.328-2.189,67.255,47.732c-6.337,5.349-12.842,10.708-19.403,16.108l-6.781,5.594l-0.041,1.066
		c-0.016,0.377-0.457,9.293-8.562,12.749l-2.767,1.18l2.61,3.518c3.726,4.914,12.409,16.381,15.163,39.043
		c-31.623-9.497-56.534-1.205-64.807,2.264c-3.163-19.791-6.41-36.047-9.004-44.872
		C500.272,860.218,502.564,839.995,514.552,825.509z M517.502,935.356c6.323-2.753,32.177-12.347,64.541-1.982
		c0.843,11.199,0.27,24.827-2.803,41.376c-2.114,11.381-4.211,22.053-6.113,31.676c-0.079,0.229-0.134,0.459-0.139,0.706
		c-0.134,0.68-0.276,1.401-0.409,2.069c-7.313,37.019-12.148,61.475-9.311,78.228c0.085,0.503-0.165,0.829-0.279,0.947
		c-0.147,0.152-0.41,0.315-0.782,0.276c-5.328-0.676-12.145-3.606-14.376-13.725c-0.635-2.889-2.197-5.085-4.639-6.526
		c-3.926-2.313-9.42-2.182-14.523-1.253C529.724,1031.765,523.919,976.862,517.502,935.356z M575.878,1095.505
		c-1.83-5.875-4.537-10.975-8.519-14.257c-0.901-14.457,2.823-35.151,8.125-62.163c7.839,6.428,30.568,25.099,41.446,34.346
		c-2.665,2.404-6.816,7.2-9.576,15.494c-2.106,6.324-9.822,11.208-17.285,15.935
		C584.898,1088.133,579.597,1091.492,575.878,1095.505z M485.716,1116.507c4.11-3.012,8.361-6.125,12.15-9.819
		c11.368-11.097,20.243-25.648,23.532-31.389c0.607-1.061,1.59-1.838,2.767-2.189c4.109-1.221,7.796-1.838,10.795-1.838
		c2.439,0,4.427,0.408,5.818,1.229c1.293,0.764,2.057,1.859,2.408,3.449c2.976,13.503,12.819,16.712,18.423,17.422
		c1.804,0.232,3.56-0.392,4.814-1.701c0.715-0.746,1.211-1.667,1.451-2.656c5.184,8.102,6.668,21.899,6.502,33.697
		c-5.868,0.104-11.211,2.293-18.268,5.191c-4.058,1.668-8.655,3.557-14.391,5.504c-19.283,6.55-62.624,4.855-72.848,4.347
		C469.247,1128.602,476.669,1123.129,485.716,1116.507z M571.011,1141.458c-18.97,2.987-81.031,4.159-99.459,3.684
		c-1.012-0.028-1.877-0.712-2.101-1.667c-0.076-0.321-0.114-0.621-0.176-0.934c4.355,0.216,13.071,0.572,23.341,0.572
		c17.001,0,38.199-0.978,50.631-5.201c5.878-1.995,10.55-3.916,14.672-5.609c6.679-2.744,11.406-4.68,16.294-4.826
		c-0.258,4.87-0.771,9.17-1.387,12.201C572.635,1140.614,571.922,1141.314,571.011,1141.458z M671.707,1101.558
		c-6.436,2.579-22.207,8.609-38.345,12.89c7.97-6.912,22.287-17.503,37.277-20.004c0.409,2.147,1.03,4.24,1.628,5.898
		C672.443,1100.83,672.198,1101.362,671.707,1101.558z M670.21,1089.695c-22.498,3.568-42.732,23.386-46.269,27.021
		c-7.545,1.609-14.781,2.6-20.755,2.418c-14.142-0.468-21.82-4.125-24.256-5.518c-0.25-4.128-0.738-8.294-1.55-12.28
		c2.922-4.631,9.158-8.611,15.235-12.458c8.167-5.17,16.611-10.516,19.252-18.452c2.799-8.406,7.171-12.636,9.079-14.167
		c13.144,6.403,24.3,7.664,29.873,7.807c2.919,0.095,5.534-2.254,5.687-5.307c0.194-3.779,0.983-5.173,1.102-5.32
		c0.005,0,0.509,0.036,1.608,0.973C665.438,1059.718,669.441,1072.653,670.21,1089.695z M654.575,1049.883
		c-1.667,1.49-2.601,4.32-2.819,8.637c-0.023,0.462-0.48,0.885-0.816,0.792c-5.325-0.137-16.133-1.332-28.919-7.788
		c-10.84-9.322-40.418-33.578-45.495-37.737c0.241-1.217,0.479-2.425,0.724-3.666c0.074-0.373,0.154-0.779,0.228-1.156
		c26.33-8.891,36.281-26.655,39.529-34.663c3.129,3.971,8.828,12.659,14.808,29.077
		C639.338,1024.033,650.502,1043.19,654.575,1049.883z M613.629,969.62c-1.001,3.488-7.911,23.625-35.074,33.883
		c1.697-8.613,3.525-17.981,5.363-27.887c3.284-17.685,3.789-32.196,2.754-44.064c-0.002-0.096-0.012-0.187-0.026-0.281
		c-1.301-14.524-4.913-25.051-8.595-32.479c3.906-1.397,11.272-4.237,16.247-7.392c1.395,4.965,3.682,16.794,2.062,37.768
		l-0.049,0.651l0.289,0.586c1.022,2.073,2.297,4.388,3.699,6.934C605.067,945.998,610.983,956.747,613.629,969.62z M593.237,886.367
		c-4.113,3.131-12.725,6.522-17.466,8.189c-1.755-3.007-3.414-5.337-4.715-7.079c6.828-4.295,8.364-11.642,8.707-14.458l5.186-4.272
		c3.056-2.515,6.118-5.036,9.172-7.565C594.107,867.328,593.966,877.955,593.237,886.367z M605.164,845.709
		c-17.772-44.822-53.52-49.378-67.188-49.375c16.798-21.104,36.338-45.823,40.108-50.594c6.421-0.394,45.077-0.146,74.707,51.089
		C640.958,813.633,623.969,829.654,605.164,845.709z M655.733,792.464c-33.75-56.545-77.315-51.607-79.18-51.373l-0.96,0.127
		l-0.599,0.759c-0.425,0.538-34.563,43.749-53.659,67.579c-10.743,1.627-21.828-1.111-25.224-2.074
		c-11.952-43.539-6.364-96.014-4.559-109.857c7.74,4.406,24.003,11.778,46.206,11.776c25.505-0.003,58.817-9.763,95.915-44.945
		c6.376,6.773,30.308,34.694,35.561,77.057C671.492,759.725,666.032,776.475,655.733,792.464z M631.219,660.235
		c-71.514,68.452-127.908,39.291-139.752,31.8c-8.524-15.062-2.373-23.922,0.352-26.809c14.255,8.54,28.608,11.928,42.315,11.928
		c16.668-0.002,32.359-4.942,45.698-11.459c0.006-0.002,0.01-0.006,0.016-0.008c19.316-9.441,33.67-22.175,38.899-28.05
		C622.13,640.753,629.492,648.703,631.219,660.235z M614.775,586.419l-0.387,0.635l0.046,0.746c0.165,2.667,0.472,5.72,0.826,9.257
		c1.061,10.571,2.377,23.689,0.898,36.291c-3.3,4.321-16.268,16.622-34.51,26.29c9.262-113.334-37.347-155.285-47.849-163.205
		c3.34-5.075,6.263-10.744,9.152-16.355c1.634-3.175,3.286-6.381,5.021-9.515c8.063-14.559,16.104-22.452,22.53-26.06
		c0.312-0.092,0.586-0.236,0.826-0.433c3.354-1.729,6.238-2.29,8.384-1.984c-2.883,9.716-12.729,47.763-1.931,82.859
		c10.713,34.799,35.832,40.561,44.035,41.513C621.306,570.27,619.701,578.311,614.775,586.419z M687.691,346.606l-0.333,0.552
		l-0.01,0.64c-0.284,19.489-7.427,54.074-22.822,87.614c-0.524,1.484-1.087,3.518-1.799,6.095
		c-3.095,11.162-8.852,31.942-23.387,49.848l-0.382,0.47l-0.111,0.596c-0.287,1.544-0.472,3.746-0.705,6.531
		c-0.972,11.637-2.792,33.145-15.273,62.85c-6.271-0.567-30.279-4.922-40.538-38.258c-11.085-36.024,0.876-76.692,2.445-81.724
		c2.292-2.261,14.95-14.547,28.064-23.791c-1.179,6.141-1.808,10.146-1.912,10.82c-0.199,1.298,0.692,2.512,1.99,2.713
		c1.278,0.194,2.514-0.689,2.713-1.99c0.114-0.741,11.712-74.462,35.842-102.134l0.537-0.617l0.044-0.818
		c0.054-0.983,0.075-1.913,0.096-2.845c0.183-8.555,0.377-17.401,31.681-75.948c4.435-0.165,19.794-0.018,32.566,8.379
		C715.487,264.07,709.668,310.124,687.691,346.606z M718.045,251.032c-12.693-7.93-26.947-8.701-32.971-8.616
		c0.918-6.659,3.845-24.168,10.562-36.339c0.336-0.607,1.058-0.929,1.779-0.94c9.05,0.287,21.688,2.073,30.514,8.95
		c0.462,0.361,0.712,1.009,0.65,1.693C728.175,220.289,726.229,235.675,718.045,251.032z M730.153,209.859
		c-9.781-7.24-23.053-9.173-32.589-9.476c-0.878-0.018-1.731,0.185-2.548,0.485c-3.509-2.492-7.668-5.84-10.636-8.829
		c-0.01-0.011-0.021-0.02-0.032-0.031c-2.062-2.08-3.544-3.984-3.806-5.293c-0.315-1.578,0.177-4.159,1.355-7.007
		c0.023-0.048,0.043-0.095,0.063-0.145c2.45-5.826,7.784-12.723,15.238-14.532c0.245,0.039,0.532,0.124,0.627,0.31
		c0.036,0.07,0.852,1.794-2.734,7.46c-1.224,1.939-1.577,3.653-1.076,5.24c0.813,2.581,3.536,3.72,6.42,4.925
		c4.497,1.884,9.595,4.017,10.181,11.306c0.103,1.309,1.262,2.277,2.563,2.181c1.309-0.106,2.285-1.252,2.181-2.563
		c-0.065-0.804-0.183-1.549-0.326-2.268c4.066,0.434,9.651,1.501,13.605,3.665c0.08,0.055,0.168,0.091,0.254,0.135
		c1.835,1.045,3.293,2.333,4.022,3.925C734.14,202.021,733.204,205.552,730.153,209.859z M937.178,323.273
		c-40.22-2.194-69.66-64.193-65.623-138.206c1.97-36.092,11.549-69.567,26.973-94.258c15.158-24.257,34.156-36.973,53.295-35.989
		l21.185,1.156c-33.971,14.093-61.365,66.92-64.864,131.086c-3.5,64.189,18.006,119.664,50.259,137.369L937.178,323.273z
		 M1079.305,196.403c-1.97,36.092-11.549,69.565-26.973,94.255c-15.158,24.26-34.084,37.019-53.295,35.989
		c-40.22-2.194-69.66-64.193-65.623-138.206c1.97-36.092,11.549-69.565,26.973-94.255c14.579-23.335,32.646-36.049,51.103-36.049
		c0.731,0,1.461,0.021,2.192,0.059C1053.902,60.391,1083.342,122.39,1079.305,196.403z"/>
	<path fill="#2E45CE" d="M1009.441,135.942c-9.809-0.589-19.388,4.985-26.81,15.553c-7.186,10.232-11.59,24.066-12.401,38.958
		c-0.813,14.889,2.06,29.12,8.09,40.073c6.229,11.311,15.093,17.84,24.959,18.377c0.439,0.026,0.878,0.036,1.317,0.036
		c9.393,0,18.402-5.493,25.493-15.589c7.187-10.232,11.59-24.066,12.401-38.958c0.813-14.889-2.06-29.123-8.09-40.073
		C1028.171,143.007,1019.307,136.479,1009.441,135.942z M1037.74,194.134c-0.764,14.012-4.863,26.97-11.546,36.482
		c-6.446,9.177-14.497,13.937-22.657,13.537c-8.165-0.447-15.643-6.1-21.048-15.922c-5.607-10.183-8.273-23.508-7.509-37.52
		c0.764-14.012,4.863-26.97,11.546-36.482c6.169-8.784,13.808-13.565,21.614-13.565c0.348,0,0.694,0.01,1.043,0.028
		c8.167,0.447,15.643,6.1,21.048,15.922C1035.838,166.795,1038.504,180.119,1037.74,194.134z"/>
	<path fill="#2E45CE" d="M1007.319,174.856c-3.415-0.222-6.588,1.624-9.022,5.09c-2.199,3.134-3.544,7.334-3.789,11.83
		c-0.537,9.848,4.249,17.847,10.893,18.211c0.155,0.01,0.31,0.013,0.465,0.013c6.443,0,11.823-7.316,12.347-16.934
		C1018.749,183.22,1013.963,175.22,1007.319,174.856z M1005.855,205.244c-0.065,0-0.129-0.003-0.196-0.005
		c-3.782-0.207-6.773-6.376-6.402-13.204c0.194-3.565,1.265-6.975,2.935-9.352c0.818-1.167,2.494-3.082,4.664-3.082
		c0.067,0,0.134,0.003,0.204,0.005c3.782,0.207,6.773,6.376,6.402,13.204C1013.096,199.518,1009.567,205.244,1005.855,205.244z"/>
</g>
</svg>
